<svg enable-background="new 300 0 400 400" height="400" viewBox="300 0 400 400" width="400" xmlns="http://www.w3.org/2000/svg"><g fill="#49beaa"><path d="m500 0c-110.287 0-200 89.713-200 200s89.713 200 200 200 200-89.729 200-200-89.713-200-200-200zm0 369.017c-93.184 0-169.017-75.816-169.017-169.017s75.833-169.017 169.017-169.017 169.017 75.818 169.017 169.017-75.818 169.017-169.017 169.017z"/><path d="m577.459 183.114h-61.967v-61.967c0-8.552-6.925-15.492-15.492-15.492s-15.492 6.94-15.492 15.492v61.967h-61.967c-8.567 0-15.492 6.94-15.492 15.492s6.925 15.492 15.492 15.492h61.967v61.967c0 8.553 6.925 15.492 15.492 15.492s15.492-6.939 15.492-15.492v-61.967h61.967c8.567 0 15.492-6.939 15.492-15.492 0-8.552-6.925-15.492-15.492-15.492z"/></g></svg>