<svg enable-background="new 0 0 852.286 211.39" height="211.39" viewBox="0 0 852.286 211.39" width="852.286" xmlns="http://www.w3.org/2000/svg"><g fill="#fdf7fa"><path d="m0 128.246v-3.458l1.886-10.373 4.086-3.929 3.458-10.844 6.758-11.159 2.672-6.601 3.929-6.915 13.516-26.875 3.929-5.972 1.1-3.301 9.272-14.459 1.729-3.3 5.029-7.544 6.759-11.316 3.3-2.2h3.458l2.357 4.715-5.815 10.373-1.571 3.458-6.758 10.059-1.729 3.458-5.029 6.758-1.1 3.301-7.387 11.001-1.1 3.144-7.387 13.673-.786 1.729-6.443 10.844-2.201 8.801-3.615 3.615-1.257 3.772-3.929 9.901-2.357 10.059-4.872 9.901-3.929 2.986h-2.673z"/><path d="m93.824 128.246v-3.458l1.886-10.373 4.086-3.929 3.458-10.844 6.758-11.159 2.672-6.601 3.929-6.915 13.516-26.875 3.929-5.972 1.1-3.301 9.272-14.459 1.729-3.3 5.029-7.544 6.759-11.316 3.3-2.2h3.458l2.357 4.715-5.815 10.373-1.571 3.458-6.758 10.059-1.729 3.458-5.029 6.758-1.1 3.301-7.387 11.001-1.1 3.144-7.387 13.673-.786 1.729-6.443 10.844-2.201 8.801-3.615 3.615-1.257 3.772-3.929 9.901-2.357 10.059-4.872 9.901-3.929 2.986h-2.672z"/><path d="m246.896 37.876-3.3-3.458v-3.3l2.2-4.558 2.986-1.571 8.33.943h54.064l40.077-1.415 6.601 1.729 2.357-1.101h31.118l13.516-1.729h8.487l3.458 3.458v2.986l-8.801 3.771h-32.69l-16.816-.943-10.215.943h-25.304l-14.302.786h-8.487l-13.516 1.729h-14.302l-11.944 1.729-3.3 1.572h-5.029zm70.095 92.413-2.515-23.26v-21.06l-1.571-8.487-.943-5.972-2.515-7.543v-7.23l4.243-2.829h6.287l1.257 2.515.943 4.243 1.257 5.029 1.257 7.544.786 4.243v50.764l-4.243 4.086z"/><path d="m442.563 130.131-5.186-1.886-4.087-.943-12.887-6.443-4.086-5.344-7.701-8.801-4.4-13.202 1.257-19.488 4.086-6.129 5.973 1.257 2.514-2.672.786-1.571.943-.943.786-1.572 2.986-5.187 2.515-6.129 7.229-8.172 1.571-3.3 5.188-5.187 5.342-7.229 2.986-2.043 6.445-4.558 5.342-2.2 3.459-1.572 13.045-2.672 12.258 2.986 9.273 4.715 5.971 5.815 3.301 4.244.943.943 3.301 5.815.785 3.458.943 1.571 4.244 16.974v22.003l-2.83 11.001-3.928 6.601-2.516 5.186-16.031 16.031-8.486 4.086-17.76 5.972h-16.816zm8.331-6.129h16.346l16.029-6.129 11.316-9.272 3.615-4.872 3.457-3.458 1.572-5.029 2.828-5.501 2.043-12.259-2.357-24.832-5.029-14.773-12.258-12.259-11.631-2.357-10.844 1.257-10.373 5.187-8.801 7.387-2.672 1.571-6.758 7.701-5.816 5.815-5.343 7.229-6.287 14.459-4.4 4.558v17.602l3.3 6.758 8.33 11.158 8.33 4.872h1.887l1.729 1.729 6.758 1.729z"/><path d="m580.237 128.246-2.672-2.829 2.514-5.187 7.23-3.615 3.143 3.144h5.029l10.217 3.3h17.602l5.186-1.572h13.203l17.76-4.872 6.914-7.072 1.729-4.243v-10.845l-2.514-5.186-1.572-5.972-4.4-6.601-.785-.943-2.516-5.029-5.973-5.815-9.43-10.687-4.086-2.043-1.57-1.729-3.459-1.572-8.487-5.658-3.301-1.1-5.029-2.672-15.244-5.029-2.516-1.257-5.029-1.257-4.242-1.729-15.246-2.515h-4.242l-9.902-.943-2.672.943-8.801 1.415-5.5 4.244-.943 3.615h-3.457l-3.301-3.301v-5.972l4.557-4.4 5.502-2.357 5.186-.786 5.029-1.729h23.574l16.975 4.244 4.242 1.729 6.916 1.415 8.172 3.615 1.73 1.729 6.758 2.514 6.129 1.257 18.074 10.216 6.129 6.287 7.701 10.059 3.301 4.243 1.729 2.515 1.729 1.729 1.729 3.3 1.572 2.515 3.457 5.972 2.672 3.929 1.572 7.858v10.216l-2.516 7.544-4.715 6.915-4.715 2.357-5.5 3.772-8.801 2.2-5.029.786-8.488 1.729h-5.814l-11.945 1.729h-23.577l-2.514.786h-9.273zm24.203-28.919-2.986-4.086-.943-5.972-1.572-4.086v-5.187l-.941-2.515-.787-5.029-2.514-7.544v-9.273l1.729-1.729h6.758l1.887 2.043 3.143 8.016.785 4.243.787 1.729.943 5.815 2.672 6.287-1.102 15.245-2.043 3.929h-2.043z"/><path d="m735.673 130.131-5.188-1.886-4.086-.943-12.887-6.443-4.088-5.344-7.699-8.801-4.402-13.202 1.258-19.488 4.086-6.129 5.973 1.257 2.516-2.672.785-1.571.943-.943.785-1.572 2.986-5.187 2.514-6.129 7.23-8.172 1.572-3.3 5.186-5.187 5.344-7.229 2.986-2.043 6.443-4.558 5.344-2.2 3.457-1.572 13.045-2.672 12.26 2.986 9.271 4.715 5.973 5.815 3.301 4.244.943.943 3.299 5.815.787 3.458.943 1.571 4.242 16.974v22.003l-2.828 11.001-3.93 6.601-2.514 5.186-16.031 16.031-8.486 4.086-17.76 5.972h-16.816zm8.328-6.129h16.346l16.031-6.129 11.314-9.272 3.615-4.872 3.457-3.458 1.572-5.029 2.83-5.501 2.043-12.259-2.357-24.832-5.029-14.773-12.26-12.259-11.629-2.357-10.846 1.257-10.373 5.187-8.801 7.387-2.672 1.571-6.758 7.701-5.814 5.815-5.344 7.229-6.287 14.459-4.4 4.558v17.602l3.301 6.758 8.33 11.158 8.33 4.872h1.885l1.729 1.729 6.758 1.729z"/><path d="m840.185 130.446-2.986-3.144v-4.872l4.242-4.243h4.873l5.973 2.986v5.343l-3.459 3.3-4.086 1.729zm2.043-35.676-4.244-4.086v-6.287l2.516-1.257h6.443l3.457 5.187-4.244 6.443z"/><path d="m45.799 181.179h13.714c1.789 0 3.329.68 4.621 2.037 1.258 1.392 1.888 3.048 1.888 4.969 0 1.822-.381 3.396-1.143 4.721-.729 1.325-1.673 2.087-2.832 2.286 1.523.266 2.799 1.076 3.826 2.435.994 1.358 1.49 2.932 1.49 4.721 0 2.285-.762 4.24-2.286 5.863-1.557 1.623-3.412 2.435-5.565 2.435h-13.713zm13.317 13.266c1.358 0 2.517-.612 3.478-1.838.96-1.226 1.441-2.699 1.441-4.423 0-1.391-.48-2.584-1.441-3.577-.961-.994-2.12-1.491-3.478-1.491h-11.33v11.329zm0 14.311c1.722 0 3.196-.628 4.422-1.888 1.225-1.259 1.838-2.766 1.838-4.521 0-1.689-.613-3.113-1.838-4.273-1.226-1.192-2.701-1.789-4.422-1.789h-11.33v12.472h11.33z"/><path d="m96.232 210.645v-12.82l-11.329-16.646h2.833l9.59 14.36 9.292-14.36h2.832l-10.932 16.646v12.82z"/><path d="m162.815 206.868c-2.65-3.014-3.975-6.658-3.975-10.932s1.325-7.934 3.975-10.981c2.617-3.014 5.796-4.521 9.541-4.521 3.081 0 5.681.828 7.801 2.484 2.12 1.623 3.428 3.81 3.925 6.559h-1.988c-.365-2.054-1.474-3.759-3.329-5.118-1.822-1.357-3.958-2.037-6.41-2.037-3.18 0-5.897 1.325-8.149 3.976-2.253 2.683-3.379 5.896-3.379 9.64s1.126 6.956 3.379 9.64c2.252 2.65 4.969 3.976 8.149 3.976 2.716 0 4.952-.796 6.708-2.386 1.789-1.59 2.799-3.709 3.031-6.36h1.988c-.266 3.214-1.475 5.781-3.627 7.702-2.12 1.922-4.82 2.882-8.099 2.882-3.744-.002-6.924-1.509-9.541-4.524z"/><path d="m204.107 210.645v-29.466h1.987v12.869h17.789v-12.869h1.988v29.466h-1.988v-14.708h-17.789v14.708z"/><path d="m248.131 210.645v-29.466h14.062c2.02 0 3.743.763 5.168 2.286 1.424 1.49 2.136 3.312 2.136 5.466 0 1.888-.431 3.527-1.292 4.919-.895 1.392-2.005 2.203-3.33 2.435 1.225.332 2.219 1.375 2.981 3.131s1.143 3.875 1.143 6.36c0 1.391.033 2.435.099 3.13.066.828.199 1.408.397 1.739h-1.987c-.332-.397-.547-1.126-.646-2.187l-.149-4.224c0-1.987-.481-3.693-1.441-5.118-.928-1.391-2.07-2.087-3.428-2.087h-11.727v13.615h-1.986zm13.714-15.454c1.557 0 2.898-.597 4.025-1.789 1.093-1.159 1.64-2.584 1.64-4.273 0-1.656-.547-3.081-1.64-4.273-1.127-1.159-2.468-1.739-4.025-1.739h-11.727v12.075h11.727z"/><path d="m290.614 210.645v-29.466h1.988v29.466z"/><path d="m315.956 208.508c-2.021-1.888-3.031-4.19-3.031-6.907h1.987c0 2.187.812 4.059 2.436 5.615 1.622 1.558 3.577 2.336 5.863 2.336 2.484 0 4.621-.663 6.409-1.988 1.756-1.324 2.634-2.932 2.634-4.819 0-1.623-.778-2.981-2.335-4.075-1.524-1.093-3.578-1.755-6.162-1.987-3.147-.265-5.664-1.159-7.553-2.683-1.888-1.523-2.832-3.396-2.832-5.615 0-2.187.96-4.058 2.882-5.615 1.921-1.557 4.24-2.335 6.957-2.335 2.914 0 5.416.812 7.503 2.435 2.054 1.623 3.08 3.577 3.08 5.863h-1.987c0-1.756-.845-3.263-2.534-4.521-1.656-1.259-3.677-1.889-6.062-1.889-2.154 0-4.009.597-5.565 1.789-1.524 1.16-2.286 2.584-2.286 4.273 0 1.656.795 3.048 2.386 4.174 1.622 1.127 3.759 1.806 6.409 2.037 3.048.266 5.499 1.143 7.354 2.634 1.821 1.49 2.732 3.329 2.732 5.516 0 2.385-1.076 4.422-3.229 6.111s-4.754 2.534-7.801 2.534c-2.85-.001-5.268-.961-7.255-2.883z"/><path d="m361.669 210.645v-27.528h-10.087v-1.938h22.261v1.938h-10.187v27.528z"/><path d="m393.122 210.645v-29.466h1.988v29.466z"/><path d="m414.637 210.645 11.676-29.466h2.484l11.529 29.466h-2.287l-3.775-9.441h-13.614l-3.776 9.441zm18.882-11.33-6.062-15.851-6.21 15.851z"/><path d="m459.804 210.645v-29.466h2.732l17.789 27.031v-27.031h1.988v29.466h-2.734l-17.787-26.634v26.634z"/><path d="m537.468 208.508c-2.021-1.888-3.031-4.19-3.031-6.907h1.986c0 2.187.812 4.059 2.436 5.615 1.623 1.558 3.578 2.336 5.863 2.336 2.484 0 4.621-.663 6.41-1.988 1.756-1.324 2.633-2.932 2.633-4.819 0-1.623-.777-2.981-2.334-4.075-1.525-1.093-3.578-1.755-6.162-1.987-3.148-.265-5.664-1.159-7.553-2.683s-2.832-3.396-2.832-5.615c0-2.187.959-4.058 2.881-5.615s4.24-2.335 6.957-2.335c2.914 0 5.416.812 7.504 2.435 2.053 1.623 3.08 3.577 3.08 5.863h-1.988c0-1.756-.844-3.263-2.533-4.521-1.656-1.259-3.678-1.889-6.062-1.889-2.154 0-4.008.597-5.564 1.789-1.525 1.16-2.287 2.584-2.287 4.273 0 1.656.795 3.048 2.387 4.174 1.621 1.127 3.758 1.806 6.408 2.037 3.049.266 5.5 1.143 7.355 2.634 1.82 1.49 2.732 3.329 2.732 5.516 0 2.385-1.076 4.422-3.23 6.111-2.152 1.689-4.754 2.534-7.801 2.534-2.851-.001-5.269-.961-7.255-2.883z"/><path d="m578.36 206.868c-2.65-3.014-3.977-6.658-3.977-10.932s1.326-7.934 3.977-10.981c2.615-3.014 5.797-4.521 9.539-4.521 3.082 0 5.682.828 7.803 2.484 2.119 1.623 3.428 3.81 3.926 6.559h-1.988c-.365-2.054-1.475-3.759-3.33-5.118-1.822-1.357-3.959-2.037-6.41-2.037-3.18 0-5.896 1.325-8.148 3.976-2.252 2.683-3.379 5.896-3.379 9.64s1.127 6.956 3.379 9.64c2.252 2.65 4.969 3.976 8.148 3.976 2.717 0 4.953-.796 6.709-2.386 1.789-1.59 2.799-3.709 3.031-6.36h1.988c-.266 3.214-1.475 5.781-3.629 7.702-2.119 1.922-4.818 2.882-8.1 2.882-3.742-.002-6.923-1.509-9.539-4.524z"/><path d="m619.651 210.645v-29.466h1.988v12.869h17.789v-12.869h1.988v29.466h-1.988v-14.708h-17.788v14.708z"/><path d="m663.675 210.645v-29.466h3.131l10.783 26.981 10.732-26.981h3.131v29.466h-1.988v-27.18l-10.98 27.18h-1.838l-10.982-27.18v27.18z"/><path d="m713.712 210.645v-29.466h1.988v29.466z"/><path d="m737.96 181.179h11.678c3.113 0 5.781 1.408 8 4.224 2.188 2.782 3.279 6.161 3.279 10.137 0 4.174-1.092 7.735-3.279 10.684-2.219 2.948-4.887 4.422-8 4.422h-11.678zm11.678 27.577c2.551 0 4.736-1.291 6.559-3.875s2.734-5.697 2.734-9.342c0-3.445-.912-6.377-2.734-8.795s-4.008-3.628-6.559-3.628h-9.689v25.64z"/><path d="m788.595 210.645v-27.528h-10.088v-1.938h22.262v1.938h-10.188v27.528z"/></g></svg>